<svg width="404" height="54" viewBox="0 0 404 54" fill="none" xmlns="http://www.w3.org/2000/svg">
<g id="Group 13">
<path id="DESIGNO" d="M85.4 42H96.272C99.088 42 101.704 41.504 104.12 40.512C106.552 39.504 108.672 38.104 110.48 36.312C112.304 34.52 113.72 32.424 114.728 30.024C115.736 27.624 116.24 25.032 116.24 22.248C116.24 19.464 115.728 16.872 114.704 14.472C113.696 12.056 112.28 9.944 110.456 8.136C108.648 6.328 106.536 4.92 104.12 3.912C101.704 2.904 99.088 2.4 96.272 2.4H85.4V42ZM93.176 35.04V9.36H95.408C97.808 9.36 99.944 9.92 101.816 11.04C103.704 12.16 105.184 13.688 106.256 15.624C107.344 17.56 107.888 19.76 107.888 22.224C107.888 24.672 107.344 26.864 106.256 28.8C105.184 30.736 103.704 32.264 101.816 33.384C99.944 34.488 97.808 35.04 95.408 35.04H93.176ZM134.072 42H156.104V35.184H141.848V25.56H155.528V18.744H141.848V9.216H156.104V2.4H134.072V42ZM185.939 42.768C188.819 42.768 191.339 42.296 193.499 41.352C195.659 40.392 197.339 39.016 198.539 37.224C199.755 35.416 200.363 33.24 200.363 30.696C200.363 28.392 199.859 26.504 198.851 25.032C197.859 23.544 196.443 22.272 194.603 21.216C192.779 20.144 190.627 19.096 188.147 18.072C186.995 17.592 185.979 17.152 185.099 16.752C184.219 16.352 183.531 15.88 183.035 15.336C182.555 14.776 182.315 14.048 182.315 13.152C182.315 11.936 182.779 10.896 183.707 10.032C184.651 9.168 185.971 8.736 187.667 8.736C189.187 8.736 190.659 9.048 192.083 9.672C193.523 10.296 194.755 11.04 195.779 11.904L199.019 5.808C198.155 5.072 197.099 4.392 195.851 3.768C194.603 3.144 193.259 2.64 191.819 2.256C190.379 1.872 188.939 1.68 187.499 1.68C184.955 1.68 182.723 2.232 180.803 3.336C178.883 4.424 177.387 5.856 176.315 7.632C175.259 9.408 174.731 11.304 174.731 13.32C174.731 15.032 175.107 16.528 175.859 17.808C176.611 19.072 177.603 20.152 178.835 21.048C180.067 21.944 181.395 22.712 182.819 23.352C184.755 24.184 186.395 24.936 187.739 25.608C189.099 26.28 190.131 27.016 190.835 27.816C191.539 28.6 191.891 29.616 191.891 30.864C191.891 32.432 191.347 33.608 190.259 34.392C189.187 35.176 187.819 35.568 186.155 35.568C184.571 35.568 183.099 35.28 181.739 34.704C180.379 34.128 179.163 33.448 178.091 32.664C177.035 31.88 176.147 31.176 175.427 30.552L171.443 36.984C172.115 37.64 173.115 38.424 174.443 39.336C175.787 40.248 177.419 41.048 179.339 41.736C181.275 42.424 183.475 42.768 185.939 42.768ZM218.338 42H226.114V2.4H218.338V42ZM263.46 42.768C265.796 42.768 268.052 42.376 270.228 41.592C272.404 40.792 274.348 39.672 276.06 38.232C277.788 36.776 279.156 35.056 280.164 33.072C281.172 31.072 281.676 28.864 281.676 26.448V20.448H263.364V26.472H273.756V27.072C273.756 28.704 273.292 30.168 272.364 31.464C271.436 32.744 270.212 33.76 268.692 34.512C267.188 35.248 265.572 35.616 263.844 35.616C261.716 35.616 259.788 35.04 258.06 33.888C256.348 32.736 254.988 31.128 253.98 29.064C252.972 27 252.468 24.6 252.468 21.864C252.468 19.336 252.916 17.08 253.812 15.096C254.724 13.096 256.052 11.52 257.796 10.368C259.54 9.2 261.66 8.616 264.156 8.616C266.076 8.616 268.02 8.976 269.988 9.696C271.956 10.416 273.644 11.416 275.052 12.696L278.7 6.672C276.732 5.056 274.444 3.824 271.836 2.976C269.244 2.112 266.652 1.68 264.06 1.68C261.004 1.68 258.244 2.224 255.78 3.312C253.316 4.384 251.212 5.872 249.468 7.776C247.724 9.664 246.388 11.848 245.46 14.328C244.532 16.792 244.068 19.416 244.068 22.2C244.068 25.112 244.556 27.816 245.532 30.312C246.524 32.808 247.9 34.992 249.66 36.864C251.436 38.72 253.5 40.168 255.852 41.208C258.204 42.248 260.74 42.768 263.46 42.768ZM299.509 42H307.285V15.36L324.349 42H332.125V2.4H324.349V29.04L307.285 2.4H299.509V42ZM370.004 42.768C372.772 42.768 375.364 42.24 377.78 41.184C380.196 40.128 382.316 38.664 384.14 36.792C385.964 34.904 387.388 32.72 388.412 30.24C389.452 27.744 389.972 25.072 389.972 22.224C389.972 19.376 389.452 16.712 388.412 14.232C387.388 11.736 385.964 9.552 384.14 7.68C382.316 5.792 380.196 4.32 377.78 3.264C375.364 2.208 372.772 1.68 370.004 1.68C367.236 1.68 364.644 2.208 362.228 3.264C359.812 4.32 357.692 5.792 355.868 7.68C354.044 9.552 352.612 11.736 351.572 14.232C350.548 16.712 350.036 19.376 350.036 22.224C350.036 25.072 350.548 27.744 351.572 30.24C352.612 32.72 354.044 34.904 355.868 36.792C357.692 38.664 359.812 40.128 362.228 41.184C364.644 42.24 367.236 42.768 370.004 42.768ZM370.004 35.28C367.764 35.28 365.764 34.72 364.004 33.6C362.26 32.48 360.892 30.936 359.9 28.968C358.908 27 358.412 24.752 358.412 22.224C358.412 19.696 358.908 17.448 359.9 15.48C360.892 13.512 362.26 11.968 364.004 10.848C365.764 9.728 367.764 9.168 370.004 9.168C372.26 9.168 374.26 9.728 376.004 10.848C377.748 11.968 379.116 13.512 380.108 15.48C381.1 17.448 381.596 19.696 381.596 22.224C381.596 24.752 381.1 27 380.108 28.968C379.116 30.936 377.748 32.48 376.004 33.6C374.26 34.72 372.26 35.28 370.004 35.28Z" fill="#333136"/>
<circle id="Oval" r="12" transform="matrix(0 -2 -2 0 24 24)" fill="url(#paint0_angular_0_8010)"/>
</g>
<defs>
<radialGradient id="paint0_angular_0_8010" cx="0" cy="0" r="1" gradientUnits="userSpaceOnUse" gradientTransform="translate(12 12) scale(12)">
<stop stop-color="#E7816B" stop-opacity="0.01"/>
<stop offset="0.999287" stop-color="#E7816B"/>
</radialGradient>
</defs>
</svg>
